PathFileType	4	(X/Y/Z)	./resultDataOpenSim/trcMotMarkerGrf/sub09/qtm-05-07.trc
DataRate	CameraRate	NumFrames	NumMarkers	Units	OrigDataRate	OrigDataStartFrame	OrigNumFrames
250.000000	250.000000	14	24	m	250.000000	321	513
Frame#	Time	L.Toe.Tip			R.Toe.Tip			L.Ankle.Lat			R.Ankle.Lat			L.Ankle.Med			R.Ankle.Med			L.Heel			R.Heel			L.Knee.Lat			R.Knee.Lat			L.Knee.Med			R.Knee.Med			L.Thigh.Upper			R.Thigh.Upper			L.ASIS			R.ASIS			V.Sacral			L.Acromium			R.Acromium			C7			L.Elbow			R.Elbow			L.Wrist.Lat			R.Wrist.Lat
		X1	Y1	Z1	X2	Y2	Z2	X3	Y3	Z3	X4	Y4	Z4	X5	Y5	Z5	X6	Y6	Z6	X7	Y7	Z7	X8	Y8	Z8	X9	Y9	Z9	X10	Y10	Z10	X11	Y11	Z11	X12	Y12	Z12	X13	Y13	Z13	X14	Y14	Z14	X15	Y15	Z15	X16	Y16	Z16	X17	Y17	Z17	X18	Y18	Z18	X19	Y19	Z19	X20	Y20	Z20	X21	Y21	Z21	X22	Y22	Z22	X23	Y23	Z23	X24	Y24	Z24

321	1.28	0.14749973	-0.059175014	0.06142833	1.0163892	0.049514469	0.16607102	0.058651551	0.058685964	-0.010349199	0.86675786	0.053862265	0.19174795	0.082891915	0.064845862	0.084446031	0.8830884	0.099595722	0.10366892	-0.01628434	0.07253018	0.029124244	0.80406172	0.030275266	0.13699939	0.31760157	0.39191322	-0.041185305	0.80657115	0.50801623	0.24804086	0.31979498	0.38439548	0.083493814	0.80039681	0.49269826	0.12348678	0.47744723	0.77328387	-0.068070009	0.52834378	0.79628169	0.30348989	0.58946232	0.84078295	-0.02182368	0.59901796	0.86921866	0.21952591	0.43277239	0.92205466	0.10361813	0.64025927	1.3006239	-0.054942974	0.60227647	1.3133657	0.27304847	0.55762718	1.3625218	0.1020008	0.50346688	0.94658991	-0.12945762	0.43054386	0.98983352	0.34780865	0.7381027	0.81536987	-0.077160742	0.5411571	0.74370244	0.38678426
322	1.284	0.14790726	-0.059003029	0.060873966	1.0178908	0.046965567	0.16539277	0.062557461	0.061363952	-0.01210198	0.86831571	0.053269367	0.19139229	0.087299526	0.066973189	0.082583838	0.88482425	0.098834489	0.10317496	-0.011617905	0.076915016	0.02780875	0.80481372	0.030768512	0.13702149	0.32547004	0.39186318	-0.041458847	0.81238121	0.50768546	0.24853972	0.32792146	0.38371263	0.083208244	0.80608477	0.49325238	0.12397737	0.48469797	0.77311366	-0.067388162	0.53555523	0.79820115	0.30405545	0.59663687	0.84083961	-0.02096154	0.60648094	0.87050316	0.22001076	0.43973092	0.92274197	0.10374724	0.64750569	1.3012105	-0.054311149	0.60936962	1.31395	0.27366129	0.5644356	1.3631107	0.10255774	0.50968248	0.94778202	-0.12894774	0.43807176	0.99017342	0.34825594	0.74283574	0.81394386	-0.076978141	0.54885273	0.74411429	0.38704256
323	1.288	0.14848241	-0.058646726	0.060276177	1.0191777	0.045239329	0.16433059	0.066569044	0.064116475	-0.013753688	0.86970977	0.052847437	0.19087616	0.091944671	0.069203473	0.080806795	0.88620745	0.098083348	0.10240841	-0.0067339181	0.081480346	0.026737806	0.8054499	0.031122715	0.13691199	0.3335593	0.39173241	-0.041789635	0.81798877	0.50711337	0.24902103	0.3362766	0.38291082	0.082865513	0.81165827	0.49347255	0.12440724	0.49191586	0.77301756	-0.066632446	0.54287402	0.80009315	0.30457033	0.6037186	0.84096519	-0.020100647	0.61386003	0.8718262	0.22040585	0.44690475	0.92344865	0.10413339	0.6547478	1.3018499	-0.05367335	0.6164043	1.3145955	0.27424045	0.57123187	1.3637663	0.10305636	0.51591338	0.94904509	-0.12844786	0.44557885	0.99056371	0.34871631	0.74751644	0.81252614	-0.076816129	0.55656885	0.74458296	0.38727488
324	1.292	0.14929074	-0.058057943	0.059707102	1.0201733	0.044142675	0.16300736	0.070717586	0.066991545	-0.015244743	0.87083172	0.052641947	0.19031754	0.096823514	0.071575962	0.079163787	0.88719773	0.097397892	0.1015539	-0.0016423066	0.086214878	0.025932951	0.80593831	0.031363829	0.13674685	0.34193527	0.39152182	-0.042204796	0.82350943	0.50641929	0.24941611	0.34482863	0.3819782	0.082477499	0.81719841	0.49340602	0.12471915	0.4990988	0.77301233	-0.065807872	0.55024401	0.80188688	0.30506835	0.61068065	0.84116457	-0.019239676	0.62111407	0.87315881	0.22073895	0.45421469	0.92420759	0.10463152	0.66198037	1.3025407	-0.053024905	0.62338023	1.3152956	0.27478234	0.57800753	1.3644619	0.10351569	0.52215651	0.95037373	-0.12795767	0.45305581	0.99100909	0.34919332	0.75214883	0.81111795	-0.07667388	0.56431916	0.74511356	0.38748664
325	1.296	0.15033724	-0.057213151	0.059165766	1.020919	0.043400873	0.1616628	0.075051476	0.070067214	-0.016507136	0.87164304	0.05264146	0.18982012	0.10192529	0.074118521	0.077702166	0.88784893	0.096802148	0.10077245	0.0036879485	0.091126156	0.025350347	0.80628899	0.031525278	0.13662388	0.35068214	0.39123579	-0.042734822	0.82903279	0.50572577	0.24968418	0.35369127	0.38091272	0.081999321	0.8227666	0.49314229	0.12489225	0.50624989	0.77310095	-0.064935561	0.55758957	0.80353078	0.30558813	0.61752697	0.84145103	-0.018364733	0.62821693	0.87446811	0.22105627	0.46159706	0.92507708	0.1050494	0.66919536	1.3032796	-0.052364668	0.63029733	1.3160462	0.27529343	0.58477986	1.3651824	0.10396792	0.52841297	0.95176347	-0.12747779	0.46048374	0.99151454	0.34969386	0.75672851	0.80971273	-0.076558658	0.57211985	0.74571159	0.38768412
326	1.3	0.15159087	-0.056114175	0.058603085	1.0215292	0.042822388	0.16055436	0.079619738	0.073420054	-0.01748487	0.87219338	0.052768497	0.18941498	0.10724001	0.076848547	0.07646858	0.8882663	0.096294367	0.10014066	0.0093209384	0.096247016	0.024914034	0.80654915	0.031631607	0.13657239	0.35987052	0.39089017	-0.043390882	0.83458465	0.50512571	0.24982988	0.36310256	0.37973193	0.081337892	0.8283852	0.49279172	0.1249454	0.51337851	0.77327577	-0.064042923	0.56484587	0.80501115	0.30615845	0.62430511	0.84184801	-0.017441374	0.63515384	0.87572394	0.22140626	0.46901066	0.9261019	0.10529637	0.67637968	1.3040657	-0.051696372	0.63715318	1.3168487	0.27577961	0.59158178	1.3659363	0.10443252	0.5346862	0.95320904	-0.12700653	0.4678561	0.99208266	0.35021745	0.76124954	0.80831079	-0.076475262	0.5799791	0.74638309	0.3878706
327	1.304	0.15301397	-0.054783312	0.057974321	1.0220787	0.042334743	0.15986321	0.08443956	0.077080819	-0.018172608	0.87258545	0.052919107	0.18907899	0.11276332	0.079773323	0.07549196	0.88857355	0.095872446	0.099659452	0.015301771	0.10161392	0.024577517	0.80677107	0.031703196	0.13654479	0.36949686	0.39050453	-0.044140087	0.8401303	0.50466582	0.24988127	0.37315246	0.37846741	0.080473699	0.83401964	0.49245104	0.12492101	0.52049293	0.77352817	-0.063159882	0.57197572	0.8063434	0.30679093	0.63111631	0.84239198	-0.016405266	0.64192249	0.87690592	0.22182573	0.47634615	0.92726296	0.1054976	0.68351448	1.304903	-0.05102953	0.64394922	1.3177086	0.27624175	0.5984052	1.3667358	0.10490672	0.5409762	0.95470031	-0.1265374	0.47518694	0.99270894	0.35075012	0.76571032	0.80692115	-0.076425673	0.58789277	0.747131	0.38804524
328	1.308	0.1545833	-0.053241108	0.057278952	1.0225567	0.041929013	0.15961879	0.089495925	0.081029719	-0.018618774	0.87291866	0.053012749	0.18879196	0.11849374	0.08288329	0.074768619	0.88888625	0.095547682	0.099302288	0.021627078	0.1072425	0.024344745	0.80697819	0.031765515	0.13649451	0.3794814	0.39008173	-0.044928478	0.84561487	0.5043431	0.24987109	0.38367031	0.37713585	0.079514003	0.83959597	0.49217957	0.12486311	0.52759587	0.77385394	-0.062333563	0.57896503	0.80754904	0.30748171	0.63805565	0.84311425	-0.015205103	0.64853177	0.87800742	0.22233308	0.48341623	0.92848679	0.10593528	0.69057645	1.3057983	-0.050382752	0.65068854	1.3186278	0.27668071	0.60518357	1.3675901	0.10537557	0.54727391	0.9562269	-0.12606364	0.48248856	0.99338267	0.35127253	0.77011357	0.80555252	-0.076412343	0.59584436	0.74795042	0.38820198
329	1.312	0.15629509	-0.051476749	0.05656453	1.0229288	0.041604735	0.15967115	0.094789363	0.08523129	-0.018891613	0.87325686	0.053019223	0.1885533	0.12442988	0.08616014	0.074276188	0.8892675	0.09532769	0.09904884	0.028264357	0.11312138	0.024242567	0.80715957	0.031835262	0.13642619	0.38974087	0.38960581	-0.045719684	0.85099368	0.5041187	0.24983568	0.39449969	0.37573331	0.078556095	0.84504573	0.49199655	0.12480808	0.53468303	0.77424971	-0.061621961	0.5858096	0.8086423	0.30821805	0.64507484	0.84399198	-0.013904715	0.65499768	0.87903587	0.22293237	0.49008974	0.92972536	0.10678836	0.69754643	1.3067539	-0.049775001	0.65737294	1.3196012	0.27710063	0.61186175	1.3685126	0.10582077	0.55356845	0.95778348	-0.12558361	0.48972147	0.99409083	0.35175424	0.7744615	0.80420744	-0.076439269	0.60380419	0.74882568	0.38832815
330	1.316	0.15814758	-0.049453046	0.055891107	1.023193	0.041354036	0.15977101	0.1003641	0.08965217	-0.019049509	0.87361946	0.052954563	0.18836165	0.13056899	0.089597226	0.073987996	0.88969389	0.095196127	0.09888704	0.035177063	0.11922329	0.024287744	0.80728998	0.03190373	0.13637606	0.40022109	0.38906523	-0.046481924	0.85623419	0.50395108	0.24981493	0.40557403	0.37429372	0.077638446	0.85031675	0.49189378	0.12478627	0.54173369	0.77471023	-0.061026194	0.59250457	0.8096325	0.3089856	0.65196062	0.84493844	-0.012683879	0.66133858	0.88001006	0.2236214	0.49642306	0.93098013	0.10795588	0.7044162	1.3077663	-0.04921173	0.6640084	1.3206232	0.2775082	0.61845166	1.3695114	0.10624207	0.55985562	0.95936225	-0.12509806	0.49678539	0.99482169	0.35214017	0.77875073	0.8028863	-0.076517085	0.61173623	0.74973684	0.38840692
331	1.32	0.16011615	-0.047149607	0.055280102	1.0233687	0.041163715	0.15973539	0.10627803	0.094252065	-0.019112913	0.8739821	0.052853286	0.18820648	0.13690588	0.093207371	0.073876012	0.89007954	0.095123265	0.098804913	0.04233547	0.12552448	0.024476122	0.80735339	0.03194923	0.13637222	0.41087729	0.38847289	-0.047163276	0.86131486	0.50382256	0.24985411	0.41669235	0.3729395	0.076855992	0.85535248	0.49185249	0.12481951	0.54871346	0.77523091	-0.060457334	0.59903783	0.81053242	0.30976909	0.65852776	0.84588145	-0.011683284	0.66757369	0.88095877	0.2243956	0.50258874	0.93225229	0.10914652	0.711184	1.3088328	-0.048688578	0.67060238	1.3216969	0.2779087	0.62500807	1.3705888	0.10668762	0.56613234	0.96094979	-0.1246041	0.50361069	0.99557548	0.35239076	0.78297636	0.80159553	-0.076657391	0.61961481	0.75067572	0.38842535
332	1.324	0.16216006	-0.044597487	0.054698327	1.0234723	0.041021261	0.1595625	0.11255619	0.098992603	-0.01905929	0.87429734	0.052744742	0.18807623	0.14343659	0.097012472	0.07392202	0.89034957	0.09509125	0.098787051	0.04972784	0.13202037	0.024793166	0.80735433	0.031961915	0.1364154	0.42170257	0.38785992	-0.047711024	0.86622153	0.50372874	0.24999566	0.42766281	0.37180555	0.076332546	0.86009495	0.4918597	0.12491382	0.55559692	0.77581017	-0.05982217	0.60539503	0.81136346	0.31054959	0.66477628	0.84682946	-0.010899769	0.6737233	0.88191746	0.22524878	0.50870196	0.93353276	0.11008187	0.71784684	1.309957	-0.048203785	0.6771541	1.3228336	0.27830169	0.63157403	1.3717523	0.10722259	0.57239293	0.9625378	-0.12409563	0.51027493	0.99636438	0.35256353	0.78714081	0.80034648	-0.07685733	0.62743485	0.75165269	0.3883824
333	1.328	0.16425257	-0.041859881	0.054094422	1.0235152	0.04091739	0.15938353	0.11918525	0.10386566	-0.018871481	0.8745302	0.052647196	0.18796164	0.15016019	0.10102472	0.07411734	0.89049529	0.095098742	0.098816642	0.057363115	0.13872765	0.025233086	0.80731358	0.031949474	0.1364837	0.43273977	0.38725474	-0.048102507	0.87092926	0.50365252	0.25024524	0.43869291	0.37089437	0.076059588	0.86451111	0.49191533	0.12505849	0.56237868	0.77645036	-0.059104893	0.61157363	0.81215546	0.31130721	0.67083291	0.84783664	-0.010235405	0.67980334	0.88291785	0.2261702	0.51481678	0.93482986	0.11065189	0.72439993	1.3111443	-0.047759256	0.68365857	1.3240428	0.27868382	0.63813476	1.3730015	0.10783295	0.57863451	0.96412756	-0.12356863	0.51696793	0.99719753	0.35279944	0.79125102	0.79914712	-0.077101645	0.63520832	0.75268621	0.38828884
334	1.332	0.16638703	-0.038963099	0.053445554	1.0235108	0.040842455	0.15930524	0.12613501	0.1088945	-0.018577563	0.87467775	0.052567784	0.18785544	0.15707441	0.10523431	0.074443413	0.89056506	0.095145444	0.098879729	0.065250273	0.14567184	0.025806269	0.80725443	0.031926101	0.13655185	0.44400704	0.38666494	-0.04834879	0.8753947	0.50357292	0.25055256	0.45026167	0.37007563	0.075884278	0.86861266	0.49202265	0.12523514	0.56906363	0.77715574	-0.058346505	0.61758819	0.81294503	0.31202782	0.67682033	0.84893815	-0.0095899251	0.68582114	0.88398024	0.22713919	0.5210013	0.93616718	0.11093978	0.73084072	1.312395	-0.047353024	0.69011508	1.3253253	0.27905441	0.64462461	1.3743165	0.10841179	0.58485508	0.96572062	-0.1230245	0.52381293	0.99807359	0.35319386	0.79531025	0.79800014	-0.077378692	0.64295942	0.75379112	0.3881608
